# xmcd
# 
# Track frame offsets:
#     183
#     15458
#     30313
#     47468
#     58670
#     71373
#     90088
#     103153
#     121128
#     135558
# 
# Disc length: 1989
# 
# Revision: 3
# Processed by: cddbd v1.5.2PL0 Copyright (c) Steve Scherf et al.
# Submitted via: fre:ac v1.0.17
# 
DISCID=6e07c30a
DTITLE=Johnny Cash - Boom Chicka Boom
DYEAR=1990
DGENRE=Country
TTITLE0=Johnny Cash - A Backstage Pass
TTITLE1=Cat's In The Cradle
TTITLE2=Farmer's Almanac
TTITLE3=Don't Go Near The Water
TTITLE4=Family Bible
TTITLE5=Harley
TTITLE6=I Love You, I Love You
TTITLE7=Hidden Shame
TTITLE8=Monteagle Mountain
TTITLE9=That's One You Owe Me
EXTD=
EXTT0=
EXTT1=
EXTT2=
EXTT3=
EXTT4=
EXTT5=
EXTT6=
EXTT7=
EXTT8=
EXTT9=
PLAYORDER=
